<!-- Generated by IcoMoon.io -->
<svg version="1.1" xmlns="http://www.w3.org/2000/svg" width="32" height="32" viewBox="0 0 32 32">
<title>devicon-sqlite-plain</title>
<path fill="#444" d="M27.405 1.002c-1.347-1.203-2.979-0.72-4.589 0.71-0.24 0.211-0.477 0.448-0.714 0.701-0.371 0.394-0.739 0.835-1.101 1.312-0.374-0.154-0.784-0.24-1.213-0.24h-13.36c-1.766 0-3.21 1.443-3.21 3.21v13.354c0 1.766 1.443 3.21 3.21 3.21h9.395c0.112 0.624 0.179 1.066 0.179 1.066s0.010 0.115 0.022 0.294c-0.051 1.206-0.019 2.458 0.074 3.59 0.125 1.498 0.358 2.784 0.653 3.472l0.202-0.109c-0.435-1.357-0.614-3.133-0.534-5.184 0.118-3.133 0.838-6.912 2.17-10.851 2.25-5.946 5.373-10.717 8.234-12.995-2.605 2.352-6.131 9.968-7.187 12.787-1.181 3.158-2.019 6.122-2.525 8.96 0.87-2.662 3.686-3.805 3.686-3.805s1.382-1.702 2.995-4.138c-0.966 0.221-2.554 0.598-3.085 0.822-0.784 0.33-0.995 0.442-0.995 0.442s2.541-1.546 4.72-2.246c2.995-4.72 6.262-11.427 2.973-14.362zM15.994 14.88c0.31 0.627 0.55 1.427 0.71 2.042 0.042 0.157 0.077 0.304 0.106 0.429 0.070 0.298 0.109 0.49 0.109 0.49s-0.026-0.093-0.125-0.387c-0.019-0.058-0.042-0.118-0.067-0.192-0.010-0.029-0.026-0.067-0.042-0.106-0.179-0.416-0.675-1.299-0.896-1.683-0.186 0.55-0.352 1.069-0.49 1.536 0.63 1.155 1.018 3.136 1.018 3.136s-0.032-0.128-0.192-0.576c-0.141-0.397-0.842-1.626-1.008-1.914-0.285 1.050-0.397 1.757-0.294 1.933 0.15 0.253 0.294 0.646 0.429 1.104h-8.822c-0.349 0-0.643-0.294-0.643-0.643v-13.357c0-0.349 0.294-0.643 0.643-0.643h13.024c-1.622 2.774-2.931 6.086-3.459 8.832z"></path>
</svg>
