<!-- Generated by IcoMoon.io -->
<svg version="1.1" xmlns="http://www.w3.org/2000/svg" width="32" height="32" viewBox="0 0 32 32">
<title>sqlite-plain-wordmark</title>
<path fill="#444" d="M11.563 20.889c0.001 0.001 0.002 0.001 0.004 0.001 0.12 0.027 0.242 0.042 0.365 0.044 0.172 0.001 0.344-0.032 0.505-0.096 0.16-0.068 0.306-0.167 0.427-0.291 0.124-0.122 0.223-0.267 0.291-0.427 0.065-0.161 0.098-0.334 0.098-0.507 0.001-0.136-0.021-0.27-0.063-0.399-0.044-0.127-0.108-0.245-0.19-0.35-0.048-0.062-0.101-0.119-0.158-0.173-0.072-0.067-0.146-0.131-0.225-0.191-0.094-0.073-0.191-0.142-0.29-0.208-0.117-0.078-0.235-0.152-0.355-0.223-0.194-0.114-0.382-0.238-0.562-0.372-0.068-0.050-0.133-0.104-0.196-0.161-0.050-0.045-0.097-0.094-0.139-0.147-0.070-0.088-0.126-0.188-0.165-0.293-0.037-0.105-0.057-0.215-0.056-0.325-0.002-0.116 0.021-0.232 0.069-0.338 0.048-0.103 0.119-0.194 0.207-0.266 0.091-0.074 0.197-0.131 0.31-0.166 0.125-0.037 0.255-0.055 0.385-0.054 0.149-0.002 0.298 0.023 0.439 0.072 0.135 0.048 0.258 0.122 0.364 0.218 0.107 0.098 0.194 0.216 0.254 0.349 0.046 0.104 0.080 0.213 0.101 0.325v-0.921c-0.001 0.001-0.001 0.002-0.002 0.003-0.008 0.023-0.020 0.045-0.036 0.063-0.018 0.022-0.043 0.038-0.071 0.046-0.024 0.008-0.050 0.011-0.075 0.010-0.040-0.002-0.079-0.008-0.117-0.017-0.054-0.013-0.107-0.029-0.159-0.046-0.118-0.040-0.239-0.072-0.361-0.096-0.108-0.021-0.217-0.030-0.328-0.031-0.174-0.002-0.348 0.025-0.513 0.083-0.149 0.055-0.285 0.139-0.4 0.248-0.113 0.106-0.201 0.235-0.26 0.379-0.060 0.154-0.091 0.319-0.088 0.485-0.002 0.173 0.028 0.347 0.088 0.51 0.061 0.159 0.152 0.303 0.269 0.426 0.036 0.037 0.073 0.073 0.114 0.105 0.053 0.045 0.108 0.088 0.164 0.128 0.155 0.111 0.314 0.216 0.476 0.316 0.205 0.121 0.402 0.254 0.593 0.395 0.072 0.055 0.141 0.111 0.207 0.171 0.053 0.048 0.104 0.1 0.15 0.155 0.075 0.091 0.136 0.193 0.18 0.303 0.040 0.102 0.060 0.212 0.060 0.322 0.002 0.135-0.022 0.267-0.073 0.392-0.050 0.119-0.126 0.226-0.224 0.311-0.101 0.088-0.218 0.155-0.345 0.197-0.139 0.044-0.286 0.066-0.432 0.064-0.079 0-0.159-0.006-0.236-0.021-0.046-0.008-0.091-0.019-0.136-0.032 0.045 0.012 0.090 0.022 0.136 0.032z"></path>
<path fill="#444" d="M11.427 20.857c-0.034-0.011-0.069-0.022-0.103-0.037-0.152-0.062-0.291-0.152-0.409-0.266-0.125-0.116-0.223-0.258-0.287-0.416-0.036-0.093-0.063-0.192-0.079-0.291v1.015h0.008c0.007-0.013 0.013-0.026 0.021-0.040 0.016-0.028 0.034-0.054 0.056-0.077 0.044-0.047 0.104-0.073 0.168-0.075 0.020 0.001 0.039 0.003 0.057 0.008 0.021 0.004 0.043 0.010 0.064 0.016 0.060 0.018 0.12 0.038 0.181 0.059 0.107 0.039 0.215 0.073 0.325 0.102z"></path>
<path fill="#444" d="M12.82 15.944c-0.006 0.002-0.011 0.002-0.018 0.002-0.027-0.001-0.055-0.005-0.081-0.012-0.050-0.011-0.099-0.027-0.148-0.042-0.126-0.043-0.254-0.077-0.383-0.101-0.118-0.022-0.238-0.034-0.357-0.035-0.194-0.002-0.386 0.029-0.57 0.094-0.17 0.062-0.326 0.158-0.458 0.282-0.13 0.123-0.232 0.273-0.3 0.438-0.069 0.174-0.102 0.36-0.1 0.547-0.002 0.194 0.031 0.386 0.098 0.568 0.069 0.179 0.172 0.343 0.304 0.482 0.040 0.042 0.083 0.081 0.128 0.119 0.056 0.047 0.114 0.092 0.174 0.134 0.159 0.114 0.321 0.221 0.487 0.323 0.2 0.119 0.393 0.248 0.579 0.387 0.068 0.050 0.134 0.104 0.197 0.161 0.048 0.043 0.092 0.089 0.133 0.138 0.065 0.078 0.116 0.164 0.153 0.258 0.033 0.084 0.050 0.174 0.050 0.264 0.002 0.112-0.019 0.224-0.061 0.328-0.040 0.096-0.101 0.181-0.179 0.249-0.084 0.073-0.182 0.129-0.288 0.163-0.122 0.039-0.251 0.058-0.38 0.056-0.141 0.001-0.281-0.026-0.414-0.078-0.133-0.055-0.254-0.134-0.358-0.233-0.107-0.1-0.191-0.222-0.247-0.358-0.058-0.148-0.086-0.305-0.086-0.465 0-0.021-0.008-0.043-0.024-0.059s-0.036-0.024-0.059-0.024h-0.229v1.498h0.229c0.036 0 0.067-0.022 0.079-0.055 0.008-0.024 0.018-0.048 0.030-0.070 0.009-0.016 0.019-0.030 0.031-0.043s0.030-0.021 0.048-0.022c0.007 0.001 0.014 0.002 0.021 0.003 0.018 0.003 0.036 0.008 0.053 0.013 0.058 0.017 0.115 0.035 0.171 0.056 0.159 0.058 0.32 0.105 0.485 0.141 0.131 0.029 0.265 0.046 0.4 0.047 0.195 0.002 0.389-0.035 0.569-0.108 0.18-0.076 0.344-0.188 0.48-0.326 0.139-0.138 0.25-0.301 0.327-0.481 0.073-0.182 0.111-0.375 0.11-0.57 0.001-0.154-0.024-0.306-0.073-0.452-0.050-0.145-0.122-0.279-0.216-0.399-0.054-0.068-0.112-0.131-0.175-0.191-0.076-0.071-0.155-0.139-0.237-0.201-0.097-0.075-0.197-0.147-0.299-0.215-0.119-0.079-0.239-0.155-0.362-0.229-0.189-0.111-0.373-0.232-0.548-0.362-0.064-0.048-0.125-0.098-0.183-0.151-0.044-0.040-0.084-0.082-0.121-0.128-0.059-0.074-0.107-0.158-0.139-0.247-0.031-0.087-0.047-0.177-0.046-0.27-0.002-0.093 0.017-0.184 0.054-0.268 0.037-0.080 0.092-0.15 0.161-0.206 0.075-0.061 0.161-0.108 0.254-0.136 0.109-0.033 0.223-0.049 0.337-0.047 0.13-0.002 0.261 0.020 0.385 0.063 0.114 0.041 0.218 0.103 0.308 0.184 0.090 0.083 0.164 0.183 0.215 0.295 0.056 0.127 0.091 0.262 0.104 0.401 0.002 0.020 0.011 0.039 0.027 0.053s0.036 0.021 0.056 0.021h0.229v-1.321h-0.22c-0.037 0-0.070 0.026-0.079 0.061-0.007 0.022-0.014 0.044-0.022 0.065-0.001 0.004-0.004 0.008-0.005 0.012z"></path>
<path fill="#444" d="M22.932 20.279c-0.020 0.063-0.049 0.123-0.082 0.179-0.055 0.087-0.129 0.159-0.217 0.209-0.049 0.027-0.101 0.049-0.154 0.065-0.064 0.019-0.128 0.034-0.193 0.044-0.078 0.012-0.156 0.021-0.235 0.026-0.093 0.006-0.184 0.008-0.276 0.008h-0.304c-0.086 0.001-0.172-0.008-0.255-0.026-0.073-0.015-0.143-0.043-0.207-0.082-0.059-0.037-0.11-0.087-0.15-0.145s-0.067-0.127-0.081-0.198c-0.012-0.060-0.017-0.121-0.017-0.182l0.012-3.519c-0.002-0.113 0.006-0.227 0.026-0.339 0.007-0.043 0.020-0.086 0.035-0.127 0.013-0.037 0.033-0.073 0.057-0.103 0.049-0.057 0.111-0.101 0.181-0.126 0.055-0.020 0.111-0.034 0.169-0.042v0h-1.442c0.026 0.002 0.053 0.007 0.078 0.011 0.064 0.011 0.127 0.031 0.186 0.061 0.054 0.027 0.1 0.065 0.137 0.112s0.061 0.102 0.073 0.16c0.011 0.052 0.017 0.105 0.018 0.158 0.004 0.078 0.007 0.157 0.007 0.235 0 0.001 0 0.001 0 0.001l-0.003 3.48c0 0.001 0 0.001 0 0.001 0 0.061-0.003 0.123-0.008 0.184-0.005 0.051-0.012 0.102-0.023 0.152-0.009 0.042-0.022 0.084-0.040 0.122-0.015 0.036-0.037 0.069-0.064 0.097-0.050 0.048-0.111 0.085-0.177 0.108-0.055 0.019-0.111 0.033-0.169 0.042v0.002h3.059l0.058-0.567z"></path>
<path fill="#444" d="M19.553 15.755l0.012 0.244c0.001 0.022 0.010 0.042 0.026 0.056 0.016 0.015 0.036 0.023 0.058 0.022 0.067 0 0.134 0.005 0.201 0.017 0.048 0.008 0.095 0.023 0.14 0.045 0.031 0.017 0.059 0.039 0.081 0.067 0.021 0.026 0.035 0.058 0.041 0.091 0.008 0.044 0.014 0.088 0.015 0.133 0.004 0.076 0.006 0.152 0.006 0.228l-0.003 3.48c0 0.057-0.003 0.114-0.008 0.17-0.003 0.044-0.010 0.089-0.020 0.132-0.006 0.032-0.017 0.062-0.029 0.092-0.008 0.017-0.017 0.032-0.030 0.046-0.032 0.030-0.071 0.053-0.113 0.067-0.065 0.023-0.133 0.037-0.201 0.043-0.020 0.002-0.039 0.011-0.053 0.025-0.014 0.015-0.022 0.034-0.023 0.054l-0.012 0.244h3.381l0.1-0.955h-0.239c-0.020 0-0.039 0.008-0.053 0.020s-0.025 0.029-0.028 0.049c-0.015 0.088-0.047 0.171-0.093 0.247-0.039 0.063-0.093 0.115-0.157 0.152-0.038 0.021-0.078 0.039-0.121 0.051-0.056 0.017-0.113 0.030-0.171 0.038-0.073 0.012-0.145 0.020-0.219 0.024-0.089 0.006-0.178 0.008-0.267 0.008 0 0 0 0 0 0h-0.305c0 0-0.001 0-0.001 0-0.073 0.001-0.147-0.006-0.219-0.022-0.055-0.012-0.108-0.032-0.155-0.062-0.040-0.024-0.073-0.057-0.099-0.095-0.028-0.042-0.047-0.090-0.057-0.139s-0.014-0.099-0.013-0.149c0 0 0 0 0-0.001l0.012-3.519v-0.002c0 0 0-0.001 0-0.001-0.002-0.103 0.006-0.206 0.024-0.309 0.006-0.033 0.015-0.066 0.027-0.098 0.008-0.020 0.018-0.040 0.032-0.058 0.029-0.033 0.066-0.058 0.108-0.073 0.065-0.023 0.134-0.037 0.203-0.041 0.021-0.001 0.042-0.011 0.057-0.026 0.015-0.017 0.022-0.038 0.021-0.059l-0.012-0.236h-1.845z"></path>
<path fill="#444" d="M17.357 21.002c0.253-0.062 0.494-0.161 0.719-0.291 0.266-0.159 0.503-0.363 0.698-0.602 0.197-0.236 0.352-0.504 0.459-0.793 0.103-0.287 0.155-0.59 0.154-0.896 0.001-0.181-0.016-0.361-0.049-0.538-0.033-0.17-0.084-0.337-0.15-0.497-0.067-0.159-0.151-0.311-0.249-0.452-0.102-0.147-0.219-0.282-0.348-0.407-0.254-0.248-0.555-0.445-0.885-0.578-0.165-0.065-0.337-0.114-0.512-0.145-0.183-0.032-0.368-0.049-0.554-0.048-0.241-0.001-0.481 0.029-0.715 0.088-0.228 0.059-0.446 0.149-0.65 0.266-0.202 0.116-0.388 0.258-0.553 0.422-0.165 0.167-0.307 0.354-0.425 0.558-0.117 0.202-0.208 0.419-0.269 0.644s-0.090 0.455-0.090 0.687c-0.002 0.306 0.051 0.611 0.156 0.9 0.11 0.29 0.268 0.559 0.47 0.794 0.195 0.235 0.428 0.438 0.688 0.6 0.247 0.151 0.518 0.258 0.802 0.318 0.029 0.017 0.058 0.035 0.085 0.057 0.042 0.033 0.083 0.068 0.122 0.105 0.11 0.105 0.215 0.217 0.314 0.334 0.122 0.143 0.248 0.281 0.381 0.413 0.101 0.102 0.21 0.197 0.325 0.282 0.193 0.139 0.407 0.244 0.634 0.314 0.235 0.070 0.48 0.104 0.726 0.102 0.151 0.001 0.302-0.013 0.45-0.041 0.14-0.027 0.275-0.070 0.404-0.128 0.019-0.009 0.035-0.025 0.042-0.045s0.008-0.042 0-0.062l-0.054-0.134c-0.008-0.020-0.023-0.037-0.043-0.045-0.019-0.009-0.041-0.010-0.061-0.003-0.134 0.047-0.276 0.071-0.419 0.070-0.101-0.001-0.201-0.017-0.296-0.049-0.107-0.036-0.21-0.087-0.304-0.149-0.058-0.038-0.112-0.079-0.164-0.124-0.064-0.055-0.127-0.114-0.188-0.174-0.154-0.157-0.3-0.322-0.438-0.494-0.063-0.080-0.127-0.159-0.194-0.236-0.006-0.008-0.013-0.015-0.020-0.023zM16.691 16.111c0.126-0.001 0.252 0.012 0.375 0.039 0.116 0.025 0.228 0.064 0.335 0.115 0.107 0.053 0.207 0.117 0.299 0.193 0.098 0.081 0.187 0.172 0.266 0.273 0.084 0.105 0.157 0.22 0.217 0.342 0.064 0.129 0.116 0.263 0.155 0.402 0.044 0.152 0.075 0.307 0.094 0.464 0.021 0.174 0.032 0.35 0.032 0.526 0.001 0.167-0.010 0.334-0.032 0.499-0.020 0.15-0.052 0.299-0.095 0.443-0.078 0.264-0.206 0.51-0.377 0.725-0.080 0.099-0.17 0.19-0.269 0.269-0.095 0.076-0.199 0.14-0.309 0.192-0.111 0.051-0.229 0.090-0.349 0.115-0.13 0.026-0.262 0.039-0.394 0.039-0.127 0-0.253-0.013-0.377-0.040-0.116-0.026-0.23-0.065-0.336-0.118-0.108-0.053-0.209-0.12-0.3-0.197-0.098-0.084-0.187-0.177-0.265-0.278-0.168-0.221-0.295-0.472-0.371-0.74-0.043-0.145-0.075-0.294-0.094-0.445-0.021-0.164-0.032-0.33-0.031-0.497-0.001-0.17 0.010-0.34 0.031-0.509 0.020-0.153 0.051-0.305 0.095-0.453 0.040-0.136 0.092-0.269 0.156-0.395 0.061-0.121 0.135-0.235 0.219-0.341 0.079-0.101 0.169-0.192 0.268-0.273 0.095-0.077 0.199-0.141 0.309-0.193 0.112-0.052 0.23-0.091 0.352-0.116 0.131-0.026 0.263-0.040 0.396-0.039z"></path>
<path fill="#444" d="M24.095 16.859c-0.025 0-0.049 0.004-0.071 0.014-0.018 0.008-0.035 0.021-0.048 0.037-0.020 0.023-0.032 0.052-0.030 0.083 0 0.014 0.002 0.028 0.004 0.042 0.006 0.028 0.017 0.055 0.032 0.079 0.018 0.027 0.041 0.052 0.066 0.073s0.053 0.039 0.084 0.050c0.027 0.011 0.055 0.017 0.084 0.017 0.023 0 0.044-0.004 0.064-0.014 0.017-0.008 0.033-0.021 0.044-0.038 0.019-0.026 0.029-0.057 0.029-0.089 0-0.014-0.002-0.029-0.004-0.043-0.013-0.059-0.046-0.112-0.093-0.15-0.044-0.038-0.102-0.060-0.16-0.061z"></path>
<path fill="#444" d="M24.097 16.694c-0.047-0.001-0.094 0.008-0.138 0.026s-0.080 0.048-0.11 0.084c-0.045 0.053-0.070 0.12-0.069 0.19 0 0.026 0.003 0.051 0.008 0.076 0.010 0.048 0.029 0.094 0.055 0.134 0.027 0.042 0.061 0.079 0.1 0.111 0.038 0.032 0.081 0.058 0.127 0.077s0.095 0.027 0.144 0.027c0.048 0.001 0.095-0.009 0.138-0.030 0.041-0.020 0.078-0.051 0.105-0.089 0.041-0.053 0.061-0.119 0.061-0.186 0-0.026-0.003-0.052-0.008-0.078-0.020-0.096-0.073-0.181-0.149-0.243-0.073-0.062-0.166-0.098-0.262-0.099z"></path>
<path fill="#444" d="M27.45 20.304l-0.004-0.003c-0.055 0.053-0.112 0.104-0.172 0.152-0.069 0.056-0.141 0.107-0.217 0.151-0.067 0.039-0.138 0.070-0.212 0.093-0.066 0.021-0.135 0.032-0.205 0.033-0.043 0.001-0.085-0.006-0.125-0.020s-0.075-0.035-0.107-0.064c-0.030-0.029-0.055-0.063-0.073-0.101-0.020-0.040-0.034-0.082-0.042-0.126-0.011-0.052-0.016-0.104-0.015-0.157l0.006-2.050h0.788l-0.003-0.069h-0.785v-0.749h-0.003c-0.030 0.102-0.070 0.202-0.12 0.296-0.053 0.102-0.121 0.194-0.203 0.274-0.078 0.076-0.17 0.137-0.271 0.181-0.067 0.029-0.138 0.051-0.209 0.066h0.48l-0.011 1.822c0 0.122 0.003 0.245 0.008 0.368 0.002 0.071 0.009 0.142 0.021 0.212 0.009 0.047 0.026 0.092 0.049 0.134 0.020 0.035 0.046 0.064 0.077 0.089 0.033 0.025 0.070 0.043 0.11 0.055 0.050 0.013 0.102 0.020 0.154 0.020 0.091-0.001 0.18-0.014 0.267-0.040 0.098-0.030 0.191-0.071 0.278-0.122 0.103-0.061 0.201-0.131 0.291-0.21 0.087-0.073 0.168-0.152 0.246-0.235z"></path>
<path fill="#444" d="M26.139 17.291c-0.028 0.112-0.069 0.221-0.122 0.323-0.045 0.086-0.103 0.163-0.172 0.232-0.065 0.062-0.14 0.113-0.221 0.148-0.089 0.039-0.183 0.062-0.279 0.071-0.020 0.003-0.041 0.012-0.055 0.028s-0.021 0.036-0.020 0.057l0.008 0.227h0.515l-0.010 1.656c0 0 0 0 0 0 0 0.125 0.003 0.25 0.008 0.375 0.002 0.079 0.010 0.159 0.024 0.237 0.013 0.064 0.035 0.126 0.068 0.183 0.030 0.054 0.071 0.101 0.119 0.139 0.050 0.038 0.106 0.066 0.166 0.082 0.065 0.018 0.133 0.027 0.201 0.026 0.107-0.001 0.211-0.017 0.313-0.047 0.11-0.034 0.215-0.080 0.315-0.139 0.111-0.066 0.217-0.142 0.315-0.226 0.112-0.098 0.219-0.201 0.318-0.313 0.015-0.017 0.022-0.038 0.020-0.060s-0.012-0.043-0.028-0.057l-0.127-0.108c-0.015-0.014-0.036-0.021-0.057-0.020s-0.041 0.010-0.055 0.025c-0.068 0.069-0.139 0.134-0.213 0.194-0.062 0.050-0.128 0.096-0.197 0.136-0.056 0.033-0.116 0.059-0.177 0.079-0.051 0.015-0.104 0.024-0.158 0.025-0.023 0-0.047-0.003-0.069-0.011-0.017-0.007-0.033-0.017-0.047-0.029-0.016-0.015-0.029-0.032-0.038-0.052-0.014-0.028-0.023-0.057-0.029-0.087-0.009-0.040-0.012-0.080-0.012-0.121 0 0 0-0.001 0-0.001l0.005-1.887h0.795l-0.013-0.399h-0.779v-0.749h-0.232c-0.038 0-0.071 0.026-0.080 0.063z"></path>
<path fill="#444" d="M24.846 20.812c-0.020-0.003-0.040-0.007-0.059-0.012-0.028-0.006-0.055-0.017-0.080-0.029-0.042-0.023-0.079-0.056-0.106-0.097-0.028-0.044-0.046-0.091-0.055-0.142-0.009-0.047-0.015-0.095-0.017-0.143-0.004-0.068-0.006-0.136-0.006-0.202 0 0 0-0.001 0-0.001l0.005-2.12h-0.090l0.018-0.003-0.009 0.003-0.881 0.202v0.011l0.237-0.029c0.003-0.001 0.006-0.001 0.009-0.001 0.044-0.001 0.088 0.005 0.131 0.017 0.041 0.011 0.078 0.029 0.111 0.055s0.060 0.057 0.081 0.093c0.021 0.037 0.035 0.078 0.044 0.12 0.013 0.071 0.019 0.143 0.019 0.216 0 0 0 0.001 0 0.001l-0.010 1.56c0.001 0.091-0.007 0.181-0.021 0.271-0.006 0.033-0.015 0.064-0.028 0.095s-0.032 0.058-0.057 0.079c-0.024 0.017-0.050 0.030-0.079 0.039-0.024 0.008-0.048 0.013-0.073 0.017h0.916z"></path>
<path fill="#444" d="M24.43 17.902l-1.028 0.236v0.329l0.418-0.052c0.027 0 0.054 0.003 0.081 0.011 0.020 0.005 0.038 0.014 0.055 0.026 0.015 0.012 0.027 0.026 0.036 0.042 0.012 0.022 0.021 0.046 0.026 0.070 0.012 0.061 0.017 0.123 0.017 0.186l-0.010 1.561c0 0.001 0 0.001 0 0.002 0.001 0.081-0.006 0.162-0.019 0.241-0.004 0.021-0.010 0.042-0.018 0.062-0.002 0.004-0.004 0.008-0.007 0.011-0.008 0.004-0.015 0.008-0.023 0.010-0.022 0.006-0.046 0.012-0.070 0.015-0.079 0.011-0.159 0.015-0.239 0.014-0.021-0.001-0.042 0.007-0.058 0.022s-0.026 0.035-0.026 0.057l-0.008 0.233h1.683l-0.004-0.231c0-0.021-0.009-0.043-0.025-0.058s-0.036-0.024-0.058-0.023c-0.084 0.001-0.167-0.003-0.25-0.012-0.026-0.003-0.053-0.008-0.078-0.013-0.014-0.003-0.027-0.008-0.041-0.014-0.017-0.010-0.033-0.024-0.044-0.041-0.017-0.026-0.027-0.053-0.032-0.082-0.008-0.041-0.012-0.080-0.013-0.121-0.004-0.064-0.006-0.13-0.006-0.194l0.005-2.286h-0.264z"></path>
<path fill="#444" d="M29.282 17.884c-0.114-0.001-0.228 0.014-0.338 0.043-0.108 0.029-0.211 0.073-0.307 0.13-0.099 0.059-0.191 0.131-0.272 0.214-0.088 0.089-0.168 0.188-0.236 0.294-0.102 0.154-0.181 0.323-0.235 0.5-0.053 0.176-0.080 0.358-0.079 0.541 0 0.149 0.017 0.298 0.048 0.444 0.030 0.15 0.081 0.295 0.153 0.429 0.068 0.124 0.157 0.235 0.264 0.327 0.105 0.090 0.229 0.159 0.361 0.203 0.141 0.046 0.288 0.068 0.436 0.067 0.16-0.001 0.319-0.019 0.474-0.055 0.076-0.017 0.151-0.041 0.223-0.070 0.066-0.026 0.128-0.062 0.183-0.107 0.096-0.087 0.181-0.186 0.25-0.296 0.086-0.133 0.16-0.273 0.223-0.418 0.013-0.031 0.006-0.066-0.016-0.090l-0.111-0.116c-0.018-0.019-0.044-0.029-0.070-0.026s-0.049 0.019-0.061 0.042c-0.1 0.179-0.247 0.327-0.427 0.426-0.082 0.046-0.169 0.083-0.259 0.108-0.080 0.022-0.163 0.035-0.247 0.035-0.096 0.002-0.194-0.013-0.286-0.043-0.080-0.027-0.154-0.070-0.217-0.125-0.066-0.060-0.12-0.133-0.16-0.213-0.049-0.098-0.084-0.203-0.105-0.311-0.009-0.041-0.015-0.081-0.021-0.121 0.106-0.019 0.211-0.041 0.316-0.067 0.117-0.029 0.233-0.064 0.346-0.106 0.102-0.038 0.202-0.082 0.298-0.134 0.087-0.046 0.17-0.101 0.248-0.162 0.065-0.051 0.13-0.104 0.192-0.159 0.061-0.052 0.119-0.107 0.173-0.167 0.051-0.055 0.094-0.115 0.13-0.181 0.034-0.064 0.053-0.135 0.055-0.206 0-0.026-0.003-0.053-0.008-0.079-0.017-0.081-0.048-0.158-0.093-0.227s-0.102-0.129-0.168-0.177c-0.045-0.030-0.093-0.054-0.144-0.069-0.056-0.019-0.113-0.034-0.171-0.045-0.112-0.023-0.225-0.035-0.339-0.035zM29.040 18.356c0.036 0 0.072 0.008 0.106 0.021 0.041 0.017 0.079 0.040 0.114 0.068 0.035 0.026 0.065 0.058 0.090 0.093 0.020 0.027 0.033 0.058 0.040 0.091s0.010 0.065 0.011 0.098c-0.001 0.070-0.020 0.14-0.057 0.201-0.049 0.073-0.111 0.134-0.185 0.181-0.104 0.067-0.215 0.12-0.333 0.159-0.127 0.044-0.256 0.079-0.387 0.107-0.001-0.012-0.001-0.026-0.001-0.039 0-0.114 0.013-0.227 0.040-0.338 0.026-0.108 0.066-0.212 0.119-0.31 0.028-0.053 0.061-0.103 0.098-0.15 0.031-0.039 0.067-0.073 0.107-0.102 0.069-0.050 0.153-0.078 0.238-0.078z"></path>
<path fill="#444" d="M11.613 9.645c-0.56-0.5-1.238-0.299-1.906 0.295-0.1 0.088-0.198 0.186-0.296 0.291-0.154 0.164-0.307 0.347-0.457 0.545-0.156-0.064-0.326-0.1-0.504-0.1h-5.551c-0.734 0-1.333 0.6-1.333 1.334v5.548c0 0.734 0.599 1.334 1.333 1.334h3.903c0.046 0.259 0.074 0.442 0.074 0.442s0.004 0.048 0.009 0.122c-0.021 0.501-0.008 1.021 0.031 1.491 0.052 0.622 0.149 1.157 0.271 1.442l0.084-0.045c-0.181-0.564-0.255-1.302-0.222-2.154 0.049-1.302 0.348-2.872 0.901-4.508 0.934-2.47 2.232-4.452 3.421-5.399-1.082 0.977-2.547 4.142-2.986 5.313-0.49 1.312-0.839 2.543-1.049 3.723 0.362-1.106 1.531-1.581 1.531-1.581s0.575-0.707 1.245-1.719c-0.402 0.092-1.061 0.248-1.282 0.342-0.325 0.137-0.413 0.183-0.413 0.183s1.056-0.642 1.961-0.933c1.245-1.961 2.602-4.748 1.235-5.967zM6.872 15.411c0.129 0.261 0.229 0.593 0.295 0.848 0.017 0.065 0.032 0.126 0.044 0.178 0.029 0.123 0.045 0.203 0.045 0.203s-0.011-0.038-0.052-0.161c-0.008-0.024-0.018-0.049-0.028-0.080-0.004-0.012-0.011-0.028-0.017-0.044-0.074-0.173-0.28-0.54-0.372-0.699-0.077 0.229-0.146 0.444-0.204 0.638 0.262 0.48 0.423 1.303 0.423 1.303s-0.013-0.053-0.080-0.239c-0.059-0.165-0.349-0.675-0.419-0.795-0.118 0.436-0.165 0.73-0.122 0.803 0.063 0.105 0.122 0.268 0.178 0.459h-3.665c-0.145 0-0.267-0.122-0.267-0.267v-5.549c0-0.145 0.122-0.267 0.267-0.267h5.411c-0.674 1.152-1.218 2.529-1.437 3.669z"></path>
</svg>
